# xmcd
#
# Track frame offsets: 
#        150
#        15562
#        35929
#        53555
#        74334
#        91900
#        108955
#        126115
#        143845
#        164377
#        179239
#        198388
#        214531
#        233600
#        251603
#        270092
#        289797
#        304015
#        322316
#
# Disc length: 4526 seconds
#
# Revision: 0
# Processed by: cddbd v1.5.2PL0 Copyright (c) Steve Scherf et al.
# Submitted via: ExactAudioCopy v0.99pb3
#
DISCID=1311ac13
DTITLE=Various Artist - Nu Urban Traxx #133
DYEAR=2009
DGENRE=R&B
TTITLE0=Beyonce - Diva
TTITLE1=Eric Benet - Chocolate Legs
TTITLE2=GS Boyz - Stanky Legg
TTITLE3=Chamillionaire Ft Ludacris - Creepin'
TTITLE4=Plies Ft Ashanti - Want It Need It
TTITLE5=Mike Jones - Next To You
TTITLE6=Pitbull Ft Lil' Jon - Krazy 
TTITLE7=Musiq Soulchild - So Beautiful
TTITLE8=Ciara Ft Young Jeezy - Never Ever
TTITLE9=Soulja Boy Ft Sammie - Kiss Me Thru The Phone
TTITLE10=John Legend - Everybody Knows
TTITLE11=Pleasure P - Boyfriend #2
TTITLE12=Yung La Ft Young Dro and T.I. - Ain't I
TTITLE13=Slim Thug - I Run
TTITLE14=Akon - Right Now (Na, Na, Na)
TTITLE15=Paul Wall Ft Webbie and Mouse - Bizzy Body
TTITLE16=Baby Bash FT Mario and Lil Jon - That's How I Go
TTITLE17=Jay Z Ft Santogold - Brooklyn Go Hard
TTITLE18=Jay Rock Ft Lil Wayne - All My Life (Ghetto)
EXTD=
EXTT0=
EXTT1=
EXTT2=
EXTT3=
EXTT4=
EXTT5=
EXTT6=
EXTT7=
EXTT8=
EXTT9=
EXTT10=
EXTT11=
EXTT12=
EXTT13=
EXTT14=
EXTT15=
EXTT16=
EXTT17=
EXTT18=
PLAYORDER=
